<?xml version="1.0" encoding="UTF-8"?>
<svg width="38px" height="30px" viewBox="0 0 38 30" version="1.1" xmlns="http://www.w3.org/2000/svg" xmlns:xlink="http://www.w3.org/1999/xlink">
    <!-- Generator: Sketch 49.3 (51167) - http://www.bohemiancoding.com/sketch -->
    <title>payments-mastercard</title>
    <desc>Created with Sketch.</desc>
    <defs></defs>
    <g id="payments-mastercard" stroke="none" stroke-width="1" fill="none" fill-rule="evenodd">
        <g id="Icons/Payments/Mastercard">
            <g id="mc_vrt_pos">
                <path d="M7.47591837,28.8719008 L7.47591837,27.0123967 C7.49786223,26.6960316 7.38248858,26.3855297 7.15923137,26.160106 C6.93597416,25.9346823 6.62642332,25.8161361 6.30955102,25.8347107 C5.89196487,25.8073599 5.49257569,26.009245 5.26726531,26.3615702 C5.0618469,26.0197498 4.68571899,25.8175895 4.28702041,25.8347107 C3.93987641,25.8171778 3.60939869,25.9846223 3.41844898,26.2747934 L3.41844898,25.9090909 L2.77322449,25.9090909 L2.77322449,28.8719008 L3.42465306,28.8719008 L3.42465306,27.2417355 C3.3965977,27.0365982 3.46165348,26.8296561 3.60206723,26.6773821 C3.74248098,26.5251081 3.94359633,26.4433964 4.15053061,26.4545455 C4.57861224,26.4545455 4.7957551,26.7334711 4.7957551,27.2355372 L4.7957551,28.8842975 L5.44718367,28.8842975 L5.44718367,27.2417355 C5.42027954,27.0368315 5.48573311,26.8305599 5.62588653,26.6785682 C5.76603994,26.5265765 5.96645386,26.4445236 6.17306122,26.4545455 C6.61355102,26.4545455 6.8244898,26.7334711 6.8244898,27.2355372 L6.8244898,28.8842975 L7.47591837,28.8719008 Z M17.1139592,25.9090909 L16.0530612,25.9090909 L16.0530612,25.0103306 L15.4016327,25.0103306 L15.4016327,25.9090909 L14.8122449,25.9090909 L14.8122449,26.4979339 L15.4140408,26.4979339 L15.4140408,27.8615702 C15.4140408,28.5495868 15.6808163,28.9586777 16.4439184,28.9586777 C16.7290141,28.9596345 17.0085852,28.8801378 17.250449,28.7293388 L17.0643265,28.177686 C16.8912957,28.2807985 16.6949141,28.3383789 16.493551,28.3450413 C16.1833469,28.3450413 16.0654694,28.1466942 16.0654694,27.8491736 L16.0654694,26.4979339 L17.1201633,26.4979339 L17.1139592,25.9090909 Z M22.6169796,25.8347107 C22.2965131,25.8252947 21.9965662,25.9917778 21.8352653,26.268595 L21.8352653,25.9090909 L21.1962449,25.9090909 L21.1962449,28.8719008 L21.8414694,28.8719008 L21.8414694,27.2107438 C21.8414694,26.7210744 22.0524082,26.4483471 22.4618776,26.4483471 C22.5998824,26.4464611 22.7369091,26.471735 22.8651429,26.5227273 L23.0636735,25.9028926 C22.9163178,25.8502264 22.7610709,25.8229785 22.6045714,25.822314 L22.6169796,25.8347107 Z M14.2973061,26.1446281 C13.9320796,25.9276788 13.512164,25.8201077 13.0875102,25.8347107 C12.3368163,25.8347107 11.8466939,26.1942149 11.8466939,26.7830579 C11.8466939,27.2665289 12.2065306,27.5640496 12.8703673,27.6570248 L13.1805714,27.7004132 C13.5342041,27.75 13.7017143,27.8429752 13.7017143,28.0103306 C13.7017143,28.2396694 13.4659592,28.3698347 13.0254694,28.3698347 C12.6711551,28.3800812 12.3236957,28.2709183 12.0390204,28.0599174 L11.7288163,28.5619835 C12.1046639,28.8241706 12.5548345,28.9588797 13.0130612,28.946281 C13.8692245,28.946281 14.365551,28.5433884 14.365551,27.9793388 C14.365551,27.4152893 13.9746939,27.1859504 13.3294694,27.0929752 L13.0192653,27.0495868 C12.7400816,27.0123967 12.5167347,26.9566116 12.5167347,26.7582645 C12.5167347,26.5599174 12.7276735,26.411157 13.0813061,26.411157 C13.4081606,26.4149504 13.7285767,26.5024499 14.0119184,26.6652893 L14.2973061,26.1446281 Z M31.5787755,25.8347107 C31.2583091,25.8252947 30.9583621,25.9917778 30.7970612,26.268595 L30.7970612,25.9090909 L30.1580408,25.9090909 L30.1580408,28.8719008 L30.8032653,28.8719008 L30.8032653,27.2107438 C30.8032653,26.7210744 31.0142041,26.4483471 31.4236735,26.4483471 C31.5616784,26.4464611 31.6987051,26.471735 31.8269388,26.5227273 L32.0254694,25.9028926 C31.8781138,25.8502264 31.7228669,25.8229785 31.5663673,25.822314 L31.5787755,25.8347107 Z M23.2653061,27.3842975 C23.249789,27.8053001 23.4125615,28.2133458 23.7136701,28.5082774 C24.0147786,28.8032091 24.4263447,28.9577199 24.8473469,28.9338843 C25.2347542,28.9535764 25.6154848,28.8275207 25.914449,28.5805785 L25.6042449,28.0599174 C25.3811992,28.2298485 25.1092159,28.3233243 24.8287347,28.3264463 C24.3341766,28.286468 23.9532111,27.8738149 23.9532111,27.3780992 C23.9532111,26.8823835 24.3341766,26.4697304 24.8287347,26.4297521 C25.1092159,26.4328741 25.3811992,26.5263499 25.6042449,26.696281 L25.914449,26.1756198 C25.6154848,25.9286777 25.2347542,25.8026219 24.8473469,25.822314 C24.4263447,25.7984785 24.0147786,25.9529893 23.7136701,26.2479209 C23.4125615,26.5428525 23.249789,26.9508983 23.2653061,27.3719008 L23.2653061,27.3842975 Z M29.3080816,27.3842975 L29.3080816,25.9090909 L28.6628571,25.9090909 L28.6628571,26.268595 C28.4405659,25.9828358 28.0942457,25.821369 27.7322449,25.8347107 C26.87564,25.8347107 26.1812245,26.5284844 26.1812245,27.3842975 C26.1812245,28.2401107 26.87564,28.9338843 27.7322449,28.9338843 C28.0942457,28.947226 28.4405659,28.7857593 28.6628571,28.5 L28.6628571,28.8595041 L29.3080816,28.8595041 L29.3080816,27.3842975 Z M26.907102,27.3842975 C26.9357944,26.8979345 27.3483493,26.5236906 27.835664,26.5419646 C28.3229787,26.5602386 28.7062926,26.9643271 28.6984115,27.4514705 C28.6905303,27.938614 28.2943451,28.3301148 27.8066939,28.3326446 C27.5583876,28.3357836 27.3200533,28.2351688 27.1492356,28.0550933 C26.978418,27.8750179 26.8906425,27.6318485 26.907102,27.3842975 Z M19.1209796,25.8347107 C18.2643747,25.8466921 17.579681,26.5501786 17.5916735,27.4059917 C17.6036659,28.2618049 18.3078032,28.9458657 19.1644082,28.9338843 C19.610711,28.9567714 20.0496082,28.8131847 20.3959184,28.5309917 L20.0857143,28.053719 C19.8407654,28.2499831 19.5373051,28.3590405 19.2233469,28.3636364 C18.7798688,28.4017407 18.3865963,28.0802698 18.3361633,27.6384298 L20.5386122,27.6384298 C20.5386122,27.5578512 20.5386122,27.4772727 20.5386122,27.3904959 C20.5386122,26.4607438 19.9616327,25.8409091 19.1302857,25.8409091 L19.1209796,25.8347107 Z M19.1209796,26.411157 C19.3159748,26.4070036 19.5046307,26.4804328 19.6454227,26.6152822 C19.7862147,26.7501316 19.867603,26.9353485 19.8716735,27.1301653 L18.3206531,27.1301653 C18.3440202,26.7163709 18.6939769,26.3970209 19.1085714,26.411157 L19.1209796,26.411157 Z M35.2857143,27.3904959 L35.2857143,24.7190083 L34.6653061,24.7190083 L34.6653061,26.268595 C34.4430149,25.9828358 34.0966947,25.821369 33.7346939,25.8347107 C32.878089,25.8347107 32.1836735,26.5284844 32.1836735,27.3842975 C32.1836735,28.2401107 32.878089,28.9338843 33.7346939,28.9338843 C34.0966947,28.947226 34.4430149,28.7857593 34.6653061,28.5 L34.6653061,28.8595041 L35.2857143,28.8595041 L35.2857143,27.3904959 Z M36.3621224,28.4411157 C36.402453,28.440622 36.4424928,28.447991 36.48,28.4628099 C36.5156247,28.4773339 36.5482339,28.4983527 36.5761633,28.5247934 C36.6034206,28.5515149 36.6255051,28.583035 36.6413061,28.6177686 C36.673059,28.6909237 36.673059,28.7739523 36.6413061,28.8471074 C36.6255051,28.881841 36.6034206,28.9133611 36.5761633,28.9400826 C36.5482339,28.9665234 36.5156247,28.9875421 36.48,29.0020661 C36.4428631,29.0184376 36.402714,29.0268822 36.3621224,29.0268595 C36.2420889,29.0259556 36.1333509,28.9559448 36.0829388,28.8471074 C36.0515536,28.7738765 36.0515536,28.6909995 36.0829388,28.6177686 C36.0987397,28.583035 36.1208243,28.5515149 36.1480816,28.5247934 C36.176011,28.4983527 36.2086202,28.4773339 36.2442449,28.4628099 C36.284649,28.4467526 36.3279807,28.4393613 36.3714286,28.4411157 L36.3621224,28.4411157 Z M36.3621224,28.964876 C36.3930838,28.9650639 36.4237368,28.9587278 36.4520816,28.946281 C36.4787705,28.9343763 36.502975,28.9175539 36.5234286,28.8966942 C36.6038636,28.8090164 36.6038636,28.6744547 36.5234286,28.5867769 C36.5030238,28.5658596 36.4788075,28.5490291 36.4520816,28.5371901 C36.4237089,28.524831 36.3930746,28.5184987 36.3621224,28.518595 C36.3311971,28.5187583 36.3006146,28.5250799 36.2721633,28.5371901 C36.2442929,28.5486074 36.2189825,28.5654654 36.1977143,28.5867769 C36.1172793,28.6744547 36.1172793,28.8090164 36.1977143,28.8966942 C36.2190348,28.917942 36.2443316,28.934791 36.2721633,28.946281 C36.3034597,28.9597649 36.3373687,28.9661169 36.3714286,28.964876 L36.3621224,28.964876 Z M36.3807347,28.5960744 C36.4096927,28.5946714 36.4382282,28.6034434 36.4613878,28.6208678 C36.4806522,28.6367963 36.4910468,28.661028 36.4893061,28.6859504 C36.4902066,28.706763 36.4823298,28.726999 36.4675918,28.7417355 C36.4496118,28.7580514 36.4266749,28.7678725 36.402449,28.7696281 L36.4924082,28.8719008 L36.4210612,28.8719008 L36.3373061,28.7696281 L36.3093878,28.7696281 L36.3093878,28.8719008 L36.250449,28.8719008 L36.250449,28.5991736 L36.3807347,28.5960744 Z M36.3124898,28.6487603 L36.3124898,28.7231405 L36.3807347,28.7231405 C36.3928787,28.7267578 36.4058151,28.7267578 36.4179592,28.7231405 C36.4223836,28.7143684 36.4223836,28.7040201 36.4179592,28.6952479 C36.4223836,28.6864758 36.4223836,28.6761275 36.4179592,28.6673554 C36.4058151,28.6637381 36.3928787,28.6637381 36.3807347,28.6673554 L36.3124898,28.6487603 Z M32.9002449,27.3904959 C32.9289372,26.9041328 33.3414922,26.529889 33.8288069,26.548163 C34.3161215,26.566437 34.6994355,26.9705254 34.6915543,27.4576689 C34.6836732,27.9448123 34.287488,28.3363131 33.7998367,28.338843 C33.5515305,28.3419819 33.3131961,28.2413671 33.1423785,28.0612917 C32.9715609,27.8812162 32.8837853,27.6380469 32.9002449,27.3904959 Z M11.1146122,27.3904959 L11.1146122,25.9090909 L10.4693878,25.9090909 L10.4693878,26.268595 C10.2470965,25.9828358 9.90077632,25.821369 9.53877551,25.8347107 C8.68217059,25.8347107 7.9877551,26.5284844 7.9877551,27.3842975 C7.9877551,28.2401107 8.68217059,28.9338843 9.53877551,28.9338843 C9.90077632,28.947226 10.2470965,28.7857593 10.4693878,28.5 L10.4693878,28.8595041 L11.1146122,28.8595041 L11.1146122,27.3904959 Z M8.71363265,27.3904959 C8.74232498,26.9041328 9.15487994,26.529889 9.64219461,26.548163 C10.1295093,26.566437 10.5128232,26.9705254 10.5049421,27.4576689 C10.4970609,27.9448123 10.1008757,28.3363131 9.61322449,28.338843 C9.36384818,28.3437342 9.12385456,28.2438865 8.95166114,28.063604 C8.77946772,27.8833215 8.69086811,27.6391398 8.70742857,27.3904959 L8.71363265,27.3904959 Z" id="Shape" fill="#231F20" fill-rule="nonzero"></path>
                <g id="_Group_" transform="translate(0.853061, 0.898760)" fill-rule="nonzero">
                    <rect id="Rectangle-path" fill="#FF5F00" x="13.2302041" y="2.43285124" width="9.77142857" height="17.5444215"></rect>
                    <path d="M13.8506122,11.2066116 C13.8469589,7.78248727 15.4198862,4.54696619 18.1159184,2.43285124 C13.5372411,-1.16217403 6.96207688,-0.638527515 3.01127445,3.6357861 C-0.939527984,7.91009971 -0.939527984,14.5000243 3.01127445,18.7743379 C6.96207688,23.0486515 13.5372411,23.572298 18.1159184,19.9772727 C15.4207439,17.8638289 13.8479126,14.6296483 13.8506122,11.2066116 Z" id="_Path_" fill="#EB001B"></path>
                    <path d="M36.1853061,11.2066116 C36.1852065,15.4783204 33.7438204,19.3749949 29.8980139,21.2417026 C26.0522074,23.1084104 21.4771625,22.6174261 18.1159184,19.9772727 C20.8099168,17.8620347 22.3828665,14.628284 22.3828665,11.205062 C22.3828665,7.78183993 20.8099168,4.54808931 18.1159184,2.43285124 C21.4771625,-0.207302115 26.0522074,-0.698286391 29.8980139,1.16842132 C33.7438204,3.03512903 36.1852065,6.9318036 36.1853061,11.2035124 L36.1853061,11.2066116 Z" id="Shape" fill="#F79E1B"></path>
                </g>
            </g>
        </g>
    </g>
</svg>