<?xml version="1.0" encoding="UTF-8"?>
<svg width="50px" height="30px" viewBox="0 0 50 30" version="1.1" xmlns="http://www.w3.org/2000/svg" xmlns:xlink="http://www.w3.org/1999/xlink">
    <!-- Generator: Sketch 49.3 (51167) - http://www.bohemiancoding.com/sketch -->
    <title>payments-amex</title>
    <desc>Created with Sketch.</desc>
    <defs></defs>
    <g id="payments-amex" stroke="none" stroke-width="1" fill="none" fill-rule="evenodd">
        <g id="Icons/Payments/Amex">
            <g id="american-express-(1)">
                <path d="M50,27.4284403 C50,28.8486733 48.6767578,30 47.0444336,30 L2.95556641,30 C1.32324219,30.000085 0,28.8486733 0,27.4284403 L0,2.57147469 C0,1.15132669 1.32324219,0 2.95556641,0 L47.0444336,0 C48.6768555,0 50,1.15132669 50,2.57147469 L50,27.4284403 Z" id="Shape" fill="#006FCF" fill-rule="nonzero"></path>
                <g id="Group" transform="translate(6.000000, 9.000000)" fill="#FFFFFF" fill-rule="nonzero">
                    <polygon id="Shape" points="3.24095703 3.19898305 4.52575 3.19898305 3.88352148 1.54898305"></polygon>
                    <polygon id="Shape" points="10.0735898 8.73788136 10.0735898 9.5040678 12.2344238 9.5040678 12.2344238 10.3292373 10.0735898 10.3292373 10.0735898 11.2133898 12.4679004 11.2133898 13.577418 9.97559322 12.5263535 8.73788136"></polygon>
                    <polygon id="Shape" points="26.950418 1.54898305 26.2495684 3.19898305 27.5928984 3.19898305"></polygon>
                    <polygon id="Shape" points="16.3221953 11.684322 16.3221953 8.32550847 14.8037578 9.97559322"></polygon>
                    <path d="M19.1837109,9.26847458 C19.1252578,8.91491525 18.8914453,8.73788136 18.5408945,8.73788136 L17.3148066,8.73788136 L17.3148066,9.79855935 L18.5996836,9.79855932 C18.9499824,9.79864407 19.1837109,9.62194915 19.1837109,9.26847458 Z" id="Shape"></path>
                    <path d="M23.2712305,9.68101695 C23.3880527,9.62194915 23.4466738,9.445 23.4466738,9.26855932 C23.505127,9.03305085 23.3880527,8.915 23.2712305,8.85601695 C23.1547441,8.7970339 22.9793008,8.7970339 22.8043613,8.7970339 L21.6361387,8.7970339 L21.6361387,9.74 L22.8042773,9.74 C22.9792168,9.74 23.1546602,9.74 23.2712305,9.68101695 Z" id="Shape"></path>
                    <path d="M31.680334,0.016779661 L31.680334,0.723898305 L31.3302031,0.016779661 L28.5857617,0.016779661 L28.5857617,0.723898305 L28.2352109,0.016779661 L24.4977383,0.016779661 C23.8554258,0.016779661 23.3295996,0.134745763 22.8626465,0.370423729 L22.8626465,0.016779661 L20.2348594,0.016779661 L20.2348594,0.0757627119 L20.2348594,0.370423729 C19.9429297,0.134830508 19.5925469,0.016779661 19.1253418,0.016779661 L9.72329102,0.016779661 L9.08064258,1.49 L8.43841406,0.016779661 L6.33620117,0.016779661 L5.46016016,0.016779661 L5.46016016,0.723898305 L5.16814648,0.016779661 L5.10969336,0.016779661 L2.59864453,0.016779661 L1.43050586,2.78627119 L0.0875117188,5.79152542 L0.0628203125,5.85059322 L0.0875117188,5.85059322 L3.06584961,5.85059322 L3.10313867,5.85059322 L3.12430273,5.79152542 L3.47485352,4.90779661 L4.23398828,4.90779661 L4.58437109,5.85059322 L7.971125,5.85059322 L7.971125,5.79152542 L7.971125,5.14347458 L8.26330664,5.85050847 L9.95668359,5.85050847 L10.2485293,5.14347458 L10.2485293,5.79152542 L10.2485293,5.85059322 L11.5916914,5.85059322 L18.307502,5.85059322 L18.3659551,5.85059322 L18.3659551,4.31838983 L18.4830293,4.31838983 C18.5996836,4.31838983 18.5996836,4.31838983 18.5996836,4.49525424 L18.5996836,5.79161017 L22.8043613,5.79161017 L22.8043613,5.43805085 C23.1547441,5.61508475 23.6799824,5.79161017 24.380832,5.79161017 L26.132998,5.79161017 L26.4833809,4.84898305 L27.3007168,4.84898305 L27.6510996,5.79161017 L31.0380215,5.79161017 L31.0380215,5.20245763 L31.0380215,4.90788136 L31.5638477,5.79161017 L31.680334,5.79161017 L31.7389551,5.79161017 L34.308457,5.79161017 L34.308457,0.016779661 L31.680502,0.016779661 L31.680334,0.016779661 Z M11.883873,4.96686441 L11.2997617,4.96686441 L10.9494629,4.96686441 L10.9494629,4.61355932 L10.9494629,1.72576271 L10.8910098,1.8609322 L10.8910098,1.85932203 L9.53247852,4.96686441 L9.48947852,4.96686441 L9.17714063,4.96686441 L8.67180664,4.96686441 L7.27035938,1.72576271 L7.27035938,4.96686441 L5.28496875,4.96686441 L4.8762168,4.0829661 L2.89049023,4.0829661 L2.4816543,4.96686441 L1.45511328,4.96686441 L3.18267187,0.841864407 L4.64248828,0.841864407 L6.27758008,4.78991525 L6.27758008,0.841864407 L6.62787891,0.841864407 L7.82474023,0.841864407 L7.85228711,0.900932203 L7.85430273,0.900932203 L8.59109766,2.5190678 L9.12019922,3.73144068 L9.13892773,3.67033898 L10.3068145,0.841949153 L11.8837891,0.841949153 L11.883873,4.96686441 Z M15.9134434,1.72576271 L13.6358711,1.72576271 L13.6358711,2.49177966 L15.8549902,2.49177966 L15.8549902,3.31669492 L13.6358711,3.31669492 L13.6358711,4.14194915 L15.9134434,4.14194915 L15.9134434,5.02559322 L12.6431758,5.02559322 L12.6431758,0.841949153 L15.9134434,0.841949153 L15.9134434,1.72576271 Z M20.0786484,3.24525424 C20.0801602,3.24661017 20.0820918,3.24754237 20.0839395,3.24881356 C20.1060273,3.27237288 20.1249238,3.29601695 20.1410488,3.31864407 C20.252916,3.46661017 20.3433672,3.68669492 20.3479023,4.00940678 C20.3482383,4.015 20.3484902,4.02050847 20.3488262,4.02610169 C20.3488262,4.02932203 20.3494141,4.03211864 20.3494141,4.03542373 C20.3494141,4.03728814 20.3492461,4.03872881 20.3492461,4.04050847 C20.3505898,4.0729661 20.3514297,4.10610169 20.3514297,4.14194915 L20.3514297,4.96694915 L19.4756406,4.96694915 L19.4756406,4.49533898 C19.4756406,4.25966102 19.4756406,3.90601695 19.3001973,3.67033898 C19.2450195,3.61466102 19.1891699,3.5779661 19.1283652,3.55186441 C19.0408535,3.49466102 18.8749844,3.49372881 18.5996836,3.49372881 L17.5481992,3.49372881 L17.5481992,4.96694915 L16.5556719,4.96694915 L16.5556719,0.841949153 L18.774959,0.841949153 C19.3001973,0.841949153 19.650748,0.841949153 19.9428457,1.01872881 C20.2289805,1.19211864 20.4018203,1.47966102 20.4083711,1.935 C20.3948496,2.56211864 19.9959238,2.90618644 19.7091172,3.02220339 C19.7091172,3.02220339 19.9039609,3.06177966 20.0786484,3.24525424 Z M22.0451426,4.96686441 L21.0522793,4.96686441 L21.0522793,0.841864407 L22.0451426,0.841864407 L22.0451426,4.96686441 Z M33.432752,4.96686441 L32.147791,4.96686441 L30.2791387,1.84355932 L30.2791387,4.43635593 L30.2730078,4.43025424 L30.2730078,4.96940678 L29.2864434,4.96940678 L29.2864434,4.96694915 L28.2935801,4.96694915 L27.9431973,4.08305085 L25.8991016,4.08305085 L25.5487187,5.02567797 L24.4392012,5.02567797 C23.972332,5.02567797 23.3879687,4.9079661 23.0377539,4.55440678 C22.6873711,4.20084746 22.5123477,3.72940678 22.5123477,2.96347458 C22.5123477,2.37423729 22.629002,1.78457627 23.0377539,1.31330508 C23.3295156,0.959491525 23.8553418,0.841949153 24.4975703,0.841949153 L25.4321484,0.841949153 L25.4321484,1.72576271 L24.4975703,1.72576271 C24.1471875,1.72576271 23.972332,1.78449153 23.7382676,1.96161017 C23.5634121,2.13830508 23.4465059,2.49177966 23.4465059,2.90423729 C23.4465059,3.37576271 23.504959,3.67033898 23.7382676,3.90601695 C23.9138789,4.08305085 24.1472715,4.1420339 24.4392012,4.1420339 L24.8479531,4.1420339 L26.1909473,0.901101695 L26.7752266,0.901101695 L27.6510156,0.901101695 L29.2863594,4.84915254 L29.2863594,4.64779661 L29.2863594,3.31686441 L29.2863594,3.19915254 L29.2863594,0.901186441 L30.7461758,0.901186441 L32.4393848,3.78847458 L32.4393848,0.901186441 L33.432584,0.901186441 L33.432584,4.9670339 L33.432752,4.9670339 L33.432752,4.96686441 Z" id="Shape"></path>
                    <path d="M19.2459434,2.55991525 C19.2629922,2.54152542 19.2784453,2.52067797 19.2915469,2.49677966 C19.344457,2.41228814 19.4050938,2.26008475 19.3724238,2.05237288 C19.3710801,2.03330508 19.3676367,2.01567797 19.3636055,1.99864407 C19.3625137,1.99389831 19.3626816,1.98974576 19.3614219,1.985 L19.360834,1.98508475 C19.3317754,1.88415254 19.2576172,1.82211864 19.183627,1.78449153 C19.0665527,1.72576271 18.8913613,1.72576271 18.7162539,1.72576271 L17.5481152,1.72576271 L17.5481152,2.66872881 L18.7162539,2.66872881 C18.8913613,2.66872881 19.0666367,2.66872881 19.183627,2.60966102 C19.2011797,2.60067797 19.2168008,2.58847458 19.231834,2.57466102 L19.232002,2.57542373 C19.2320859,2.57533898 19.2380488,2.5690678 19.2459434,2.55991525 Z" id="Shape"></path>
                    <path d="M36.877959,10.859661 C36.877959,10.4472034 36.7613047,10.0345763 36.5861973,9.74 L36.5861973,7.08838983 L36.5835098,7.08838983 L36.5835098,6.91135593 C36.5835098,6.91135593 34.1357852,6.91135593 33.7714609,6.91135593 C33.4073047,6.91135593 32.9653789,7.26483051 32.9653789,7.26483051 L32.9653789,6.91135593 L30.2792227,6.91135593 C29.8702188,6.91135593 29.3449805,7.02932203 29.111084,7.26483051 L29.111084,6.91135593 L24.3226309,6.91135593 L24.3226309,7.08838983 L24.3226309,7.26474576 C23.9725,6.97033898 23.3295996,6.91127119 23.0378379,6.91127119 L19.8843086,6.91127119 L19.8843086,7.08830508 L19.8843086,7.26466102 C19.5923789,6.97025424 18.8912773,6.91118644 18.5407266,6.91118644 L15.0374023,6.91118644 L14.2196465,7.79516949 L13.4604277,6.91118644 L13.2159492,6.91118644 L12.8181152,6.91118644 L8.20485352,6.91118644 L8.20485352,7.08822034 L8.20485352,7.55372881 L8.20485352,12.8631356 L13.3438574,12.8631356 L14.1882363,12.0108475 L14.9201602,12.8631356 L14.9787813,12.8631356 L17.9399023,12.8631356 L18.0741094,12.8631356 L18.1325625,12.8631356 L18.1906797,12.8631356 L18.1906797,12.2738983 L18.1906797,11.5078814 L18.4828613,11.5078814 C18.8912773,11.5078814 19.4171035,11.5078814 19.8258555,11.3308475 L19.8258555,12.8038983 L19.8258555,12.9220339 L22.4538105,12.9220339 L22.4538105,12.8038983 L22.4538105,11.3898305 L22.5702969,11.3898305 C22.7457402,11.3898305 22.7457402,11.3898305 22.7457402,11.5666102 L22.7457402,12.8038983 L22.7457402,12.9220339 L30.6875547,12.9220339 C31.2135488,12.9220339 31.7387871,12.8038983 32.0307168,12.5682203 L32.0307168,12.8038983 L32.0307168,12.9220339 L34.5420176,12.9220339 C35.0672559,12.9220339 35.59325,12.8631356 35.9436328,12.6272881 C36.4813008,12.3017797 36.8201777,11.7255932 36.8705684,11.0383898 C36.8729199,11.0180508 36.8758594,10.9977119 36.877707,10.9772881 L36.8742637,10.9739831 C36.8764473,10.9358475 36.877959,10.8981356 36.877959,10.859661 Z M18.4829453,10.5061864 L17.3147227,10.5061864 L17.3147227,10.6825424 L17.3147227,11.0362712 L17.3147227,11.3899153 L17.3147227,12.0381356 L15.3952598,12.0381356 L14.2780996,10.7416102 L14.2742363,10.7459322 L14.2196465,10.6825424 L12.9349375,12.0381356 L9.19754883,12.0381356 L9.19754883,7.91330508 L12.9933906,7.91330508 L14.0304297,9.05949153 L14.2484531,9.29949153 L14.2780156,9.26855932 L15.5045234,7.91338983 L18.5995156,7.91338983 C19.2001719,7.91338983 19.8728027,8.0629661 20.1276953,8.67966102 C20.1583496,8.80177966 20.1761543,8.93754237 20.1761543,9.09177966 C20.1761543,10.2702542 19.3585664,10.5061864 18.4829453,10.5061864 Z M24.3226309,10.4471186 C24.4392852,10.6234746 24.4977383,10.8595763 24.4977383,11.2133051 L24.4977383,12.0380508 L23.505127,12.0380508 L23.505127,11.5078814 C23.505127,11.2717797 23.505127,10.8595763 23.3296836,10.6825424 C23.2131973,10.5061864 22.9793008,10.5061864 22.6291699,10.5061864 L21.5781055,10.5061864 L21.5781055,12.0381356 L20.5854102,12.0381356 L20.5854102,7.85432203 L22.8043613,7.85432203 C23.2712305,7.85432203 23.6799824,7.85432203 23.9725,8.0309322 C24.2642617,8.20788136 24.4977383,8.50254237 24.4977383,8.97398305 C24.4977383,9.6220339 24.0891543,9.97559322 23.7970566,10.0936441 C24.0891543,10.2110169 24.2642617,10.3292373 24.3226309,10.4471186 Z M28.3522012,8.73788136 L26.074377,8.73788136 L26.074377,9.50398305 L28.2935801,9.50398305 L28.2935801,10.3291525 L26.074377,10.3291525 L26.074377,11.1542373 L28.3522012,11.1542373 L28.3522012,12.0380508 L25.0819336,12.0380508 L25.0819336,7.85423729 L28.3522012,7.85423729 L28.3522012,8.73788136 Z M30.8047129,12.0381356 L28.9358926,12.0381356 L28.9358926,11.154322 L30.8047129,11.154322 C30.9795684,11.154322 31.0966426,11.154322 31.2137168,11.0363559 C31.2721699,10.9772881 31.3302031,10.859661 31.3302031,10.7416949 C31.3302031,10.6235593 31.2721699,10.5062712 31.2137168,10.4472034 C31.1550957,10.3883051 31.0381055,10.329322 30.862998,10.329322 C29.9285879,10.270339 28.8190703,10.329322 28.8190703,9.03305085 C28.8190703,8.44372881 29.1694531,7.79542373 30.2206855,7.79542373 L32.147707,7.79542373 L32.147707,8.7970339 L30.3375078,8.7970339 C30.1624004,8.7970339 30.0454102,8.7970339 29.9285039,8.85601695 C29.8120176,8.91508475 29.8120176,9.03305085 29.8120176,9.15076271 C29.8120176,9.32762712 29.9285039,9.38661017 30.0453262,9.44508475 C30.1624004,9.50415254 30.2790547,9.50415254 30.395709,9.50415254 L30.9213672,9.50415254 C31.4470254,9.50415254 31.7973242,9.6220339 32.0308848,9.85779661 C32.2061602,10.034661 32.3229824,10.329322 32.3229824,10.7416949 C32.3229824,11.625339 31.7974082,12.0381356 30.8047129,12.0381356 Z M35.8268945,11.625339 C35.5935859,11.8613559 35.184582,12.0381356 34.6003867,12.0381356 L32.7320703,12.0381356 L32.7320703,11.154322 L34.6003027,11.154322 C34.7755781,11.154322 34.8926523,11.154322 35.0093066,11.0363559 C35.0675078,10.9772881 35.1261289,10.859661 35.1261289,10.7416949 C35.1261289,10.6235593 35.0675078,10.5062712 35.0093066,10.4472034 C34.9508535,10.3883051 34.8341992,10.329322 34.6589238,10.329322 C33.7248496,10.270339 32.6149961,10.329322 32.6149961,9.03313559 C32.6149961,8.47305085 32.932541,7.96711864 33.7156953,7.81686441 C33.8093379,7.80381356 33.9082715,7.79542373 34.0166113,7.79542373 L35.9438848,7.79542373 L35.9438848,8.7970339 L34.6589238,8.7970339 L34.1918867,8.7970339 L34.1334336,8.7970339 C33.9581582,8.7970339 33.8415039,8.7970339 33.7248496,8.85601695 C33.6660605,8.91508475 33.6076074,9.03305085 33.6076074,9.15076271 C33.6076074,9.32762712 33.6660605,9.38661017 33.8415039,9.44508475 C33.9581582,9.50415254 34.0749805,9.50415254 34.1918867,9.50415254 L34.2499199,9.50415254 L34.717293,9.50415254 C34.9725215,9.50415254 35.1655176,9.5359322 35.3421367,9.59855932 C35.5038906,9.65762712 36.039375,9.89932203 36.1591367,10.5302542 C36.1695508,10.5963559 36.1771934,10.665339 36.1771934,10.7416949 C36.1771934,11.095339 36.0603711,11.3899153 35.8268945,11.625339 Z" id="Shape"></path>
                </g>
            </g>
        </g>
    </g>
</svg>