<?xml version="1.0" encoding="UTF-8"?>
<svg width="70px" height="30px" viewBox="0 0 70 30" version="1.1" xmlns="http://www.w3.org/2000/svg" xmlns:xlink="http://www.w3.org/1999/xlink">
    <!-- Generator: Sketch 49.3 (51167) - http://www.bohemiancoding.com/sketch -->
    <title>payments-visa</title>
    <desc>Created with Sketch.</desc>
    <defs>
        <path d="M35.711668,15.646837 C35.6723273,12.5125876 38.4758679,10.7634337 40.5878408,9.72356595 C42.7577895,8.65649839 43.4866272,7.97231978 43.478345,7.01823585 C43.4617805,5.55781789 41.7473554,4.91339278 40.1426701,4.88828531 C37.3432706,4.84434723 35.7158091,5.65197091 34.4217081,6.2629194 L33.4133445,1.49459201 C34.7115867,0.889920395 37.1155089,0.362663484 39.6084652,0.339648301 C45.4598725,0.339648301 49.2883412,3.25839192 49.3090468,7.78401374 C49.3318229,13.527348 41.447124,13.8453759 41.5009586,16.4126149 C41.5195936,17.1909466 42.254643,18.0215854 43.86554,18.2329067 C44.6627063,18.3396134 46.8637134,18.4212127 49.3587402,17.2599921 L50.3381159,21.8734901 C48.9963919,22.3672704 47.271614,22.8401278 45.1244416,22.8401278 C39.6167474,22.8401278 35.7427264,19.8816307 35.711668,15.646837 M59.7488189,22.4425928 C58.6804091,22.4425928 57.7797147,21.8128137 57.3780258,20.846176 L49.0191681,0.678599173 L54.8664344,0.678599173 L56.0300901,3.9279245 L63.1755985,3.9279245 L63.8506017,0.678599173 L69.0042298,0.678599173 L64.5069697,22.4425928 L59.7488189,22.4425928 M60.5666908,16.5632598 L62.2541986,8.39077765 L57.6327048,8.39077765 L60.5666908,16.5632598 M28.6220647,22.4425928 L24.0129943,0.678599173 L29.5848759,0.678599173 L34.1918757,22.4425928 L28.6220647,22.4425928 M20.3791585,22.4425928 L14.5795152,7.62918433 L12.2335688,20.2247661 C11.9581841,21.6307845 10.8711392,22.4425928 9.66400169,22.4425928 L0.182899618,22.4425928 L0.0503836683,21.8107214 C1.99671168,21.3838944 4.20807158,20.6955312 5.54772501,19.9590454 C6.36766745,19.5092031 6.60164092,19.1158528 6.87081394,18.0466929 L11.3142394,0.678599173 L17.2029169,0.678599173 L26.2305659,22.4425928 L20.3791585,22.4425928" id="path-1"></path>
        <linearGradient x1="16.1481739%" y1="34.4008407%" x2="85.8318643%" y2="66.3485849%" id="linearGradient-3">
            <stop stop-color="#222357" offset="0%"></stop>
            <stop stop-color="#254AA5" offset="100%"></stop>
        </linearGradient>
    </defs>
    <g id="payments-visa" stroke="none" stroke-width="1" fill="none" fill-rule="evenodd">
        <g id="Icons/Payments/Visa">
            <g id="Visa_2014_logo_detail" transform="translate(0.000000, 3.000000)">
                <g id="g10267" transform="translate(34.703462, 12.281247) scale(-1, 1) rotate(-180.000000) translate(-34.703462, -12.281247) translate(0.088078, 0.668344)">
                    <g id="g10269-Clipped">
                        <mask id="mask-2" fill="white">
                            <use xlink:href="#path-1"></use>
                        </mask>
                        <g id="path10273"></g>
                        <g id="g10269" mask="url(#mask-2)">
                            <g transform="translate(-7.592060, -23.015183)" id="g10275">
                                <g transform="translate(0.421704, 0.624897)">
                                    <polyline id="path10283" fill="url(#linearGradient-3)" fill-rule="nonzero" points="0 42.5432164 67.939961 67.8264407 83.396014 25.4164334 15.4567432 0.133209087"></polyline>
                                </g>
                            </g>
                        </g>
                    </g>
                </g>
            </g>
        </g>
    </g>
</svg>