<?xml version="1.0" encoding="UTF-8"?>
<svg width="100px" height="100px" viewBox="0 0 100 100" version="1.1" xmlns="http://www.w3.org/2000/svg" xmlns:xlink="http://www.w3.org/1999/xlink">
    <!-- Generator: Sketch 51.2 (57519) - http://www.bohemiancoding.com/sketch -->
    <title>payments-stripe</title>
    <desc>Created with Sketch.</desc>
    <defs></defs>
    <g id="payments-stripe" stroke="none" stroke-width="1" fill="none" fill-rule="evenodd">
        <g id="Icons/Payments/Stripe">
            <g id="payments-stripe" transform="translate(5.000000, 17.000000)">
                <rect id="Rectangle" stroke="#C5CDD7" fill="#FFFFFF" x="0.5" y="0.5" width="89" height="64.625" rx="3"></rect>
                <path d="M0,38.7424699 L90,38.7424699 L90,62.625 C90,64.2818542 88.6568542,65.625 87,65.625 L3,65.625 C1.34314575,65.625 2.41027941e-15,64.2818542 0,62.625 L0,38.7424699 Z" id="Rectangle" fill="#097AC2"></path>
                <g id="Stripe-Logo-(black)" transform="translate(13.304348, 5.534639)" fill="#1197EB" fill-rule="nonzero">
                    <path d="M64.173913,14.2928148 C64.173913,9.83935743 62.0841477,6.3253012 58.0899994,6.3253012 C54.0789982,6.3253012 51.6521739,9.83935743 51.6521739,14.2580222 C51.6521739,19.4943139 54.5171748,22.1385542 58.6292937,22.1385542 C60.6347943,22.1385542 62.1515595,21.6688536 63.2975598,21.0077936 L63.2975598,17.52853 C62.1515595,18.1200048 60.8370297,18.4853274 59.168588,18.4853274 C57.5338522,18.4853274 56.0844988,17.8938526 55.8991164,15.8410871 L64.1402072,15.8410871 C64.1402072,15.614935 64.173913,14.7103265 64.173913,14.2928148 Z M55.8485576,12.6401646 C55.8485576,10.6743807 57.0114108,9.85675375 58.0731465,9.85675375 C59.1011762,9.85675375 60.1966177,10.6743807 60.1966177,12.6401646 L55.8485576,12.6401646 Z" id="Shape"></path>
                    <path d="M44.6310559,6.3253012 C42.8381705,6.3253012 41.6856014,7.12532873 41.0452851,7.68186961 L40.8074534,6.60357165 L36.7826087,6.60357165 L36.7826087,26.8825301 L41.3562959,25.9607593 L41.3745906,21.0388508 C42.0332016,21.4910403 43.0028233,22.1345407 44.6127612,22.1345407 C47.8875212,22.1345407 50.8695652,19.6301067 50.8695652,14.1168736 C50.8512705,9.07322182 47.8326369,6.3253012 44.6310559,6.3253012 Z M43.533371,18.3083221 C42.4539808,18.3083221 41.8136646,17.9430922 41.3745906,17.4909027 L41.3562959,11.0385068 C41.8319593,10.5341416 42.4905703,10.1863036 43.533371,10.1863036 C45.1981931,10.1863036 46.3507623,11.9602777 46.3507623,14.2386169 C46.3507623,16.5691319 45.2164879,18.3083221 43.533371,18.3083221 Z" id="Shape"></path>
                    <polygon id="Shape" points="30.5217391 4.7439759 35.2173913 3.74718719 35.2173913 0 30.5217391 0.978329661"></polygon>
                    <rect id="Rectangle-path" x="30.5217391" y="6.3253012" width="4.69565217" height="15.813253"></rect>
                    <path d="M26.0395257,7.83166095 L25.7549407,6.50992549 L21.9130435,6.50992549 L21.9130435,22.1385542 L26.3596838,22.1385542 L26.3596838,11.5468093 C27.4090909,10.1714899 29.187747,10.421548 29.7391304,10.6180222 L29.7391304,6.50992549 C29.1699605,6.29559001 27.0889328,5.90264163 26.0395257,7.83166095 Z" id="Shape"></path>
                    <path d="M16.1570827,2.37198795 L11.7571629,3.29798925 L11.7391304,17.5619709 C11.7391304,20.197513 13.7407333,22.1385542 16.4095372,22.1385542 C17.8881988,22.1385542 18.9701463,21.8714385 19.5652174,21.5508995 L19.5652174,17.9359329 C18.9881787,18.1674332 16.1390503,18.9865882 16.1390503,16.3510461 L16.1390503,10.0293064 L19.5652174,10.0293064 L19.5652174,6.23626262 L16.1390503,6.23626262 L16.1570827,2.37198795 Z" id="Shape"></path>
                    <path d="M4.36535433,11.0345227 C4.36535433,10.3568119 4.91749401,10.0961538 5.83197535,10.0961538 C7.14330709,10.0961538 8.79972612,10.4958295 10.1110579,11.2082947 L10.1110579,7.12465246 C8.67894557,6.55120482 7.26408764,6.3253012 5.83197535,6.3253012 C2.32933927,6.3253012 0,8.16728452 0,11.2430491 C0,16.0391566 6.55665868,15.2745598 6.55665868,17.3424467 C6.55665868,18.141798 5.86648408,18.402456 4.90023964,18.402456 C3.46812735,18.402456 1.63916467,17.8116311 0.189798014,17.0122799 L0.189798014,21.1480538 C1.79445395,21.8431418 3.41636426,22.1385542 4.90023964,22.1385542 C8.48914755,22.1385542 10.9565217,20.3487025 10.9565217,17.2381835 C10.9392674,12.0597776 4.36535433,12.9807692 4.36535433,11.0345227 Z" id="Shape"></path>
                </g>
                <path d="M36.9301803,49.4913152 C36.8510633,49.5934494 36.7741452,49.670049 36.6994236,49.7211161 C36.6247021,49.7721832 36.534598,49.7977164 36.4291087,49.7977164 C36.3280148,49.7977164 36.2269225,49.7644123 36.1258286,49.697803 C36.0247347,49.6311937 35.9115552,49.5579245 35.7862867,49.4779934 C35.6610182,49.3980622 35.5170715,49.3247931 35.3544422,49.2581838 C35.1918129,49.1915745 35.0006164,49.1582703 34.7808471,49.1582703 C34.5786594,49.1582703 34.4017477,49.1871339 34.2501069,49.244862 C34.0984661,49.3025901 33.9721006,49.38252 33.8710067,49.4846543 C33.7699128,49.5867885 33.6940936,49.7066835 33.6435466,49.8443427 C33.5929997,49.9820019 33.5677266,50.1329807 33.5677266,50.2972837 C33.5677266,50.4749085 33.6171739,50.623667 33.7160701,50.7435637 C33.8149663,50.8634605 33.9468259,50.9689236 34.1116529,51.0599563 C34.2764799,51.150989 34.4621822,51.2342494 34.6687653,51.3097399 C34.8753485,51.3852305 35.0874227,51.4673807 35.3049943,51.5561931 C35.5225659,51.6450055 35.735739,51.7471382 35.9445198,51.8625944 C36.1533007,51.9780505 36.3401018,52.1223685 36.5049288,52.2955526 C36.6697558,52.4687368 36.8016154,52.6774428 36.9005116,52.9216769 C36.9994077,53.165911 37.0488551,53.4589875 37.0488551,53.8009152 C37.0488551,54.2893834 36.965344,54.7489807 36.7983193,55.1797208 C36.6312947,55.610461 36.3917497,55.9867979 36.0796773,56.3087428 C35.7676048,56.6306877 35.3885085,56.8860196 34.9423768,57.0747459 C34.4962451,57.2634723 33.9940797,57.357834 33.4358657,57.357834 C33.1589563,57.357834 32.8809523,57.3267501 32.6018453,57.2645815 C32.3227383,57.2024128 32.0546237,57.1147119 31.7974936,57.001476 C31.5403635,56.8882402 31.3019174,56.7539135 31.0821481,56.5984918 C30.8623788,56.4430701 30.6755776,56.2698885 30.5217391,56.0789419 L31.2865325,55.0664856 C31.3480679,54.9909951 31.4238872,54.9288273 31.5139926,54.8799805 C31.604098,54.8311337 31.6953009,54.8067106 31.787604,54.8067106 C31.9106749,54.8067106 32.0304473,54.850006 32.1469251,54.9365981 C32.2634028,55.0231902 32.3919659,55.1186621 32.5326183,55.2230167 C32.6732707,55.3273712 32.8369963,55.4228431 33.0238003,55.5094352 C33.2106042,55.5960273 33.4402597,55.6393227 33.7127736,55.6393227 C34.1127538,55.6393227 34.421525,55.529419 34.6390966,55.3096083 C34.8566682,55.0897976 34.9654524,54.7645271 34.9654524,54.333787 C34.9654524,54.1339591 34.9160051,53.9696586 34.8171089,53.8408806 C34.7182127,53.7121027 34.5885507,53.6033091 34.4281191,53.5144967 C34.2676875,53.4256843 34.0841829,53.3468645 33.8775998,53.2780349 C33.6710166,53.2092053 33.4600412,53.134826 33.2446673,53.0548948 C33.0292934,52.9749637 32.818318,52.8806019 32.6117348,52.7718067 C32.4051517,52.6630115 32.2216471,52.5209138 32.0612155,52.3455094 C31.9007839,52.1701049 31.7711219,51.954738 31.6722257,51.6994024 C31.5733295,51.4440667 31.5238822,51.1298976 31.5238822,50.7568855 C31.5238822,50.3261454 31.6040968,49.9120638 31.7645284,49.5146283 C31.92496,49.1171928 32.1546155,48.765279 32.4535017,48.4588762 C32.752388,48.1524734 33.1150019,47.908243 33.5413544,47.7261776 C33.9677069,47.5441122 34.4467968,47.4530808 34.9786385,47.4530808 C35.2511525,47.4530808 35.5159705,47.4819444 35.7731006,47.5396725 C36.0302307,47.5974005 36.2708745,47.6773305 36.4950392,47.7794648 C36.7192039,47.881599 36.9235863,48.0026041 37.1081925,48.1424836 C37.2927987,48.2823632 37.4488326,48.4344521 37.5762988,48.598755 L36.9301803,49.4913152 Z M41.0574273,49.2182184 L40.7739263,51.562854 L43.4902615,51.562854 L43.279284,53.174791 L40.5761349,53.174791 L40.2794478,55.5793746 L43.8594721,55.5793746 L43.6484946,57.2512597 L37.9125442,57.2512597 L39.0992925,47.5463334 L44.8220568,47.5463334 L44.6110794,49.2182184 L41.0574273,49.2182184 Z M48.969083,55.5727137 C49.2108293,55.5727137 49.4207058,55.5538414 49.598719,55.5160961 C49.7767321,55.4783508 49.9294695,55.4306149 50.0569357,55.3728868 C50.1844019,55.3151588 50.2920873,55.2518809 50.379995,55.1830513 C50.4679027,55.1142217 50.5470185,55.0509438 50.6173447,54.9932157 C50.6876708,54.9354877 50.7536006,54.8877517 50.815136,54.8500065 C50.8766715,54.8122612 50.9426013,54.7933888 51.0129274,54.7933888 C51.0832536,54.7933888 51.1414916,54.8056004 51.1876432,54.8300238 C51.2337947,54.8544472 51.2678585,54.8822006 51.2898354,54.913285 L52.0414427,55.8258278 C51.623881,56.3276179 51.1283086,56.7083953 50.5547107,56.9681716 C49.9811128,57.2279478 49.3295066,57.357834 48.5998724,57.357834 C47.9933091,57.357834 47.4559812,57.2501506 46.9878726,57.0347805 C46.519764,56.8194105 46.125284,56.5230035 45.8044208,56.1455508 C45.4835576,55.7680981 45.2407161,55.3207124 45.0758891,54.8033802 C44.9110621,54.286048 44.8286499,53.7276484 44.8286499,53.1281647 C44.8286499,52.5730872 44.8901844,52.0468816 45.0132552,51.5495322 C45.136326,51.0521828 45.3099412,50.5925855 45.5341059,50.1707266 C45.7582706,49.7488677 46.0274839,49.3692004 46.341754,49.0317133 C46.6560242,48.6942262 47.0043533,48.4078105 47.3867519,48.1724577 C47.7691505,47.9371048 48.180113,47.7561523 48.6196516,47.6295946 C49.0591902,47.5030369 49.5185012,47.439759 49.9975983,47.439759 C50.35802,47.439759 50.6865702,47.4741733 50.9832587,47.5430029 C51.2799473,47.6118325 51.5480618,47.7073044 51.7876104,47.8294215 C52.0271589,47.9515385 52.2414308,48.0969667 52.4304324,48.2657102 C52.619434,48.4344538 52.7842585,48.620957 52.9249109,48.8252255 L52.1733036,49.7044639 C52.120559,49.7666325 52.0590245,49.8221395 51.9886983,49.8709863 C51.9183721,49.9198331 51.8260704,49.9442561 51.7117904,49.9442561 C51.6370688,49.9442561 51.5689413,49.9264939 51.5074059,49.890969 C51.4458705,49.855444 51.3832372,49.8121486 51.3195041,49.7610815 C51.255771,49.7100144 51.184347,49.6533973 51.1052301,49.5912286 C51.0261131,49.5290599 50.9316137,49.4724429 50.8217291,49.4213758 C50.7118444,49.3703086 50.5810837,49.3270132 50.4294428,49.2914883 C50.277802,49.2559633 50.0986927,49.2382011 49.8921095,49.2382011 C49.487734,49.2382011 49.1108353,49.3247919 48.7614021,49.4979761 C48.4119689,49.6711602 48.1086918,49.9187211 47.8515617,50.240666 C47.5944316,50.562611 47.3933457,50.9533797 47.2482979,51.4129838 C47.1032502,51.872588 47.0307274,52.386582 47.0307274,52.9549814 C47.0307274,53.367959 47.0801747,53.736525 47.1790709,54.0606902 C47.2779671,54.3848555 47.4131232,54.6590596 47.5845433,54.8833109 C47.7559634,55.1075622 47.9603458,55.2785235 48.1976966,55.3962 C48.4350475,55.5138764 48.6921737,55.5727137 48.969083,55.5727137 Z M56.8477735,55.5460701 C57.1158921,55.5460701 57.3609312,55.4938936 57.5828982,55.3895391 C57.8048652,55.2851845 57.9993581,55.136426 58.1663828,54.943259 C58.3334075,54.750092 58.4707613,54.5158529 58.5784482,54.2405344 C58.6861352,53.965216 58.7597568,53.6565975 58.7993153,53.3146698 L59.4981782,47.5463334 L61.6475113,47.5463334 L60.9486484,53.3146698 C60.8739268,53.9052722 60.7189918,54.4481299 60.4838386,54.943259 C60.2486855,55.4383881 59.9432107,55.8646812 59.5674052,56.2221511 C59.1915997,56.579621 58.7553641,56.8582658 58.2586855,57.0580937 C57.7620068,57.2579216 57.2169871,57.357834 56.62361,57.357834 C56.0302328,57.357834 55.5093873,57.2579216 55.0610579,57.0580937 C54.6127285,56.8582658 54.2446205,56.579621 53.9567227,56.2221511 C53.6688249,55.8646812 53.4666401,55.4383881 53.3501624,54.943259 C53.2336847,54.4481299 53.2128069,53.9052722 53.2875285,53.3146698 L53.9732053,47.5463334 L56.1225384,47.5463334 L55.4236755,53.3146698 C55.384117,53.6565975 55.3863147,53.965216 55.4302685,54.2405344 C55.4742224,54.5158529 55.5566347,54.750092 55.6775078,54.943259 C55.7983809,55.136426 55.9566124,55.2851845 56.1522071,55.3895391 C56.3478018,55.4938936 56.579655,55.5460701 56.8477735,55.5460701 Z M65.6626766,52.1290302 C65.9703536,52.1290302 66.2318752,52.0812943 66.4472491,51.9858209 C66.6626231,51.8903476 66.837337,51.7626817 66.9713963,51.6028194 C67.1054556,51.4429571 67.2021527,51.2564538 67.2614904,51.0433041 C67.3208281,50.8301543 67.3504965,50.6059064 67.3504965,50.3705535 C67.3504965,50.1884881 67.3241246,50.0230775 67.2713799,49.8743167 C67.2186353,49.725556 67.136223,49.5990002 67.0241407,49.4946456 C66.9120583,49.3902911 66.7714081,49.309251 66.6021857,49.2515229 C66.4329634,49.1937948 66.2340751,49.1649312 66.005515,49.1649312 L65.2407216,49.1649312 L64.8781041,52.1290302 L65.6626766,52.1290302 Z M66.2033064,47.5463334 C66.7922882,47.5463334 67.2944535,47.6096113 67.7098175,47.7361689 C68.1251815,47.8627266 68.46472,48.0370183 68.7284432,48.2590493 C68.9921664,48.4810803 69.1844616,48.7441831 69.3053348,49.0483656 C69.4262079,49.352548 69.4866435,49.6822591 69.4866435,50.0375087 C69.4866435,50.3927583 69.4393938,50.7313505 69.344893,51.0532954 C69.2503922,51.3752404 69.1130385,51.6705372 68.9328276,51.9391947 C68.7526168,52.2078522 68.5328508,52.4454218 68.273523,52.6519106 C68.0141952,52.8583994 67.7175111,53.0282506 67.3834617,53.1614692 C67.5153233,53.2369597 67.6361946,53.3291012 67.7460793,53.4378964 C67.8559639,53.5466916 67.9482657,53.678798 68.0229872,53.8342197 L69.4207131,57.2512597 L67.4823574,57.2512597 C67.3021466,57.2512597 67.1516069,57.2146251 67.0307337,57.1413549 C66.9098606,57.0680846 66.823053,56.9670621 66.7703084,56.8382841 L65.7286071,53.9674377 C65.6758624,53.8475409 65.6099326,53.7609501 65.5308157,53.7076627 C65.4516987,53.6543753 65.3330251,53.6277319 65.1747912,53.6277319 L64.6934988,53.6277319 L64.2517647,57.2512597 L62.1156176,57.2512597 L63.2891799,47.5463334 L66.2033064,47.5463334 Z M73.3567618,49.2182184 L73.0732608,51.562854 L75.7895959,51.562854 L75.5786184,53.174791 L72.8754694,53.174791 L72.5787823,55.5793746 L76.1588065,55.5793746 L75.947829,57.2512597 L70.2118786,57.2512597 L71.398627,47.5463334 L77.1213913,47.5463334 L76.9104138,49.2182184 L73.3567618,49.2182184 Z" id="SECURE" fill="#FFFFFF"></path>
                <g id="Group" transform="translate(13.304348, 45.067771)" fill="#D8D8D8" fill-opacity="0" stroke="#FFFFFF" stroke-width="2">
                    <rect id="Rectangle-2" x="1" y="5.7439759" width="8.95652174" height="7.48795181"></rect>
                    <path d="M2.56521739,5.3253012 L8.39130435,5.3253012 L8.39130435,3.91304348 C8.39130435,2.30421399 7.08709036,1 5.47826087,1 C3.86943138,1 2.56521739,2.30421399 2.56521739,3.91304348 L2.56521739,5.3253012 Z" id="Rectangle-3"></path>
                </g>
            </g>
        </g>
    </g>
</svg>