<svg width="257" height="18" viewBox="0 0 257 18" xmlns="http://www.w3.org/2000/svg"><title>secure</title><g fill="none" fill-rule="evenodd" opacity=".5"><path d="M91.357 13.432V15h-5.81v-1.568h1.96V8.287a11.278 11.278 0 0 1 .028-.798l-1.162.966a.682.682 0 0 1-.305.143.825.825 0 0 1-.283 0 .665.665 0 0 1-.392-.227l-.686-.91 3.178-2.667h1.792v8.638h1.68zm7.595-.392c.233 0 .418.064.553.193a.667.667 0 0 1 .203.507V15H92.54v-.7c0-.135.028-.28.084-.434.056-.154.154-.294.294-.42l2.94-2.961c.252-.252.471-.492.658-.721a4.47 4.47 0 0 0 .462-.675 3.12 3.12 0 0 0 .273-.666c.06-.221.091-.456.091-.703 0-.406-.097-.717-.29-.934-.194-.218-.49-.326-.886-.326a1.299 1.299 0 0 0-1.274.889c-.098.257-.226.427-.385.511-.159.084-.385.103-.679.056l-1.148-.203a3.83 3.83 0 0 1 .43-1.33 3.2 3.2 0 0 1 .791-.945 3.21 3.21 0 0 1 1.082-.563 4.471 4.471 0 0 1 1.309-.186c.504 0 .958.073 1.361.22.404.148.748.352 1.033.613.285.261.503.573.654.935.152.361.228.759.228 1.193 0 .373-.052.719-.157 1.036-.106.317-.249.62-.431.907a6.333 6.333 0 0 1-.633.833c-.24.268-.496.54-.767.815l-1.995 2.044c.257-.08.511-.14.763-.182.252-.042.485-.063.7-.063h1.904zm5.348.434c.243 0 .453-.037.63-.112.177-.075.323-.176.438-.305.114-.128.198-.28.252-.455a1.93 1.93 0 0 0 .08-.563c0-.22-.023-.42-.07-.602a1.165 1.165 0 0 0-.231-.465 1.068 1.068 0 0 0-.43-.301 1.798 1.798 0 0 0-.669-.109c-.266 0-.489.036-.668.109-.18.072-.324.172-.431.3a1.165 1.165 0 0 0-.231.466c-.047.182-.07.383-.07.602 0 .2.027.388.08.563.054.176.138.327.252.455.115.129.26.23.434.305.176.075.387.112.634.112zm0-7.203c-.22 0-.404.035-.553.105-.15.07-.272.162-.368.276a1.052 1.052 0 0 0-.206.396 1.7 1.7 0 0 0-.063.462c0 .177.016.35.049.518.033.168.093.317.182.448.089.13.21.236.364.315.154.08.352.119.595.119s.441-.04.595-.119a.962.962 0 0 0 .364-.315c.089-.13.15-.28.182-.448.033-.168.049-.34.049-.518 0-.159-.021-.313-.063-.462a1.052 1.052 0 0 0-.207-.396 1.046 1.046 0 0 0-.37-.276 1.304 1.304 0 0 0-.55-.105zm1.925 3.409c.303.107.563.24.78.399a2.183 2.183 0 0 1 .837 1.221c.065.246.098.506.098.781a2.9 2.9 0 0 1-.263 1.246 2.722 2.722 0 0 1-.742.956c-.32.263-.703.467-1.151.612a4.81 4.81 0 0 1-1.484.217 4.81 4.81 0 0 1-1.484-.217 3.457 3.457 0 0 1-1.151-.612 2.722 2.722 0 0 1-.743-.956 2.9 2.9 0 0 1-.262-1.246c0-.275.033-.535.098-.78a2.183 2.183 0 0 1 .837-1.221c.217-.16.477-.293.78-.4-.462-.21-.807-.5-1.036-.871-.229-.372-.343-.818-.343-1.341 0-.397.082-.764.245-1.103.163-.338.392-.63.686-.878a3.324 3.324 0 0 1 1.046-.585 3.964 3.964 0 0 1 1.327-.213c.48 0 .923.071 1.326.213.404.143.753.338 1.047.585.294.247.523.54.686.878.163.339.245.706.245 1.103 0 .523-.114.97-.343 1.34-.229.372-.574.662-1.036.872zm2.863.189h3.78v1.75h-3.78v-1.75zm7.413 3.157c.163.177.34.303.532.378.191.075.385.112.581.112.205 0 .394-.038.567-.116a1.09 1.09 0 0 0 .445-.377c.123-.176.22-.406.29-.694.07-.287.105-.64.105-1.06 0-.364-.027-.673-.08-.928a1.829 1.829 0 0 0-.239-.622.936.936 0 0 0-.391-.35 1.262 1.262 0 0 0-.536-.109 1.33 1.33 0 0 0-.693.175 2.39 2.39 0 0 0-.581.511v3.08zm0-4.515c.28-.266.587-.48.92-.64a2.536 2.536 0 0 1 1.117-.242c.41 0 .784.084 1.12.252.336.168.623.407.861.717s.421.685.55 1.124c.128.439.192.929.192 1.47a5.4 5.4 0 0 1-.224 1.603c-.15.48-.36.892-.634 1.235a2.89 2.89 0 0 1-.976.798 2.762 2.762 0 0 1-1.253.284c-.22 0-.415-.021-.588-.063a1.97 1.97 0 0 1-.871-.455 4.468 4.468 0 0 1-.347-.35l-.077.364c-.037.15-.098.252-.182.308a.597.597 0 0 1-.336.084h-1.442V4.521h2.17v3.99zm8.092-.77V15h-2.17V7.741h2.17zm.224-1.988c0 .173-.035.335-.105.486a1.28 1.28 0 0 1-.287.4 1.405 1.405 0 0 1-.424.272 1.314 1.314 0 0 1-1.011 0 1.397 1.397 0 0 1-.41-.273 1.26 1.26 0 0 1-.28-.399 1.18 1.18 0 0 1-.101-.486c0-.177.034-.343.102-.497a1.311 1.311 0 0 1 .69-.679 1.355 1.355 0 0 1 1.435.273c.12.117.216.252.286.406.07.154.105.32.105.497zm3.892 9.359c-.345 0-.65-.05-.913-.15a1.814 1.814 0 0 1-.666-.428 1.82 1.82 0 0 1-.409-.668 2.588 2.588 0 0 1-.14-.875V9.239h-.616a.411.411 0 0 1-.287-.109c-.08-.072-.119-.178-.119-.318v-.847l1.155-.224.427-1.771c.056-.224.215-.336.476-.336h1.134v2.121h1.799v1.484h-1.799v3.605c0 .168.04.307.123.416.081.11.199.165.353.165a.695.695 0 0 0 .34-.08c.04-.022.076-.04.112-.057a.287.287 0 0 1 .122-.024c.065 0 .118.015.157.045a.56.56 0 0 1 .123.144l.658 1.029c-.28.21-.595.367-.945.472-.35.106-.712.158-1.085.158zm11.9-8.239a.889.889 0 0 1-.22.252.493.493 0 0 1-.298.084.728.728 0 0 1-.347-.102 63.333 63.333 0 0 0-.42-.227 3.485 3.485 0 0 0-.535-.228c-.2-.067-.43-.101-.686-.101-.443 0-.773.094-.99.283-.218.19-.326.445-.326.767 0 .205.065.376.196.511.13.135.302.252.514.35.213.098.455.188.728.27.274.081.552.172.837.272.285.1.563.219.837.354.273.135.515.308.727.518.213.21.384.465.515.766.13.302.196.664.196 1.089 0 .471-.082.912-.245 1.323-.163.41-.4.769-.71 1.074-.31.306-.693.546-1.149.721-.455.176-.971.263-1.55.263a4.97 4.97 0 0 1-.97-.098 5.758 5.758 0 0 1-1.823-.7 3.688 3.688 0 0 1-.707-.546l.7-1.106a.7.7 0 0 1 .22-.2.575.575 0 0 1 .298-.08c.14 0 .281.044.423.133.143.089.304.187.483.294.18.107.387.205.62.294.233.089.509.133.826.133.43 0 .763-.094 1.001-.284.238-.189.357-.488.357-.899 0-.238-.065-.432-.196-.581a1.514 1.514 0 0 0-.514-.371 4.74 4.74 0 0 0-.725-.259c-.27-.075-.548-.157-.833-.249a6.094 6.094 0 0 1-.833-.336 2.457 2.457 0 0 1-1.239-1.337c-.13-.324-.196-.724-.196-1.2a2.891 2.891 0 0 1 .91-2.093 3.339 3.339 0 0 1 1.099-.683c.434-.17.931-.255 1.491-.255.313 0 .617.024.913.073a4.802 4.802 0 0 1 1.59.56c.23.134.437.284.619.452l-.588 1.099zm7.756 0a.889.889 0 0 1-.22.252.493.493 0 0 1-.298.084.728.728 0 0 1-.347-.102 63.333 63.333 0 0 0-.42-.227 3.485 3.485 0 0 0-.535-.228c-.2-.067-.43-.101-.686-.101-.443 0-.773.094-.99.283-.218.19-.326.445-.326.767 0 .205.065.376.196.511.13.135.302.252.514.35.213.098.455.188.729.27.273.081.551.172.836.272.285.1.563.219.837.354.273.135.515.308.727.518.213.21.384.465.515.766.13.302.196.664.196 1.089 0 .471-.082.912-.245 1.323-.163.41-.4.769-.71 1.074-.31.306-.693.546-1.149.721-.455.176-.971.263-1.55.263a4.97 4.97 0 0 1-.97-.098 5.758 5.758 0 0 1-1.823-.7 3.688 3.688 0 0 1-.707-.546l.7-1.106a.7.7 0 0 1 .22-.2.575.575 0 0 1 .298-.08c.14 0 .281.044.423.133.143.089.304.187.483.294.18.107.387.205.62.294.233.089.509.133.826.133.43 0 .763-.094 1.001-.284.238-.189.357-.488.357-.899 0-.238-.065-.432-.196-.581a1.514 1.514 0 0 0-.514-.371 4.74 4.74 0 0 0-.725-.259c-.27-.075-.548-.157-.833-.249a6.094 6.094 0 0 1-.833-.336 2.457 2.457 0 0 1-1.239-1.337c-.13-.324-.196-.724-.196-1.2a2.891 2.891 0 0 1 .91-2.093 3.339 3.339 0 0 1 1.099-.683c.434-.17.931-.255 1.491-.255.313 0 .617.024.913.073a4.802 4.802 0 0 1 1.59.56c.23.134.437.284.619.452l-.588 1.099zm8.267 6.237V15h-6.146V4.801h2.366v8.309h3.78zm8.281-2.611c0-.173-.022-.34-.067-.504a1.222 1.222 0 0 0-.216-.438 1.104 1.104 0 0 0-.396-.311 1.353 1.353 0 0 0-.595-.119c-.41 0-.733.118-.966.353-.233.236-.387.576-.462 1.019h2.702zm-2.73 1.26c.07.607.254 1.046.553 1.32.299.273.684.409 1.155.409.252 0 .469-.03.651-.091.182-.06.344-.128.487-.203.142-.075.272-.142.392-.203a.814.814 0 0 1 .374-.091c.173 0 .303.063.392.189l.63.777a3.226 3.226 0 0 1-.725.626 3.765 3.765 0 0 1-.798.378 4.325 4.325 0 0 1-.819.19 6.146 6.146 0 0 1-.78.052c-.509 0-.986-.083-1.431-.249a3.29 3.29 0 0 1-1.17-.738 3.485 3.485 0 0 1-.79-1.218c-.194-.485-.291-1.05-.291-1.694 0-.485.083-.945.249-1.379.165-.434.403-.814.714-1.141a3.4 3.4 0 0 1 1.126-.777 3.72 3.72 0 0 1 1.495-.287c.48 0 .92.075 1.32.224.399.15.741.366 1.029.651.287.285.51.633.672 1.046.16.414.241.881.241 1.404 0 .163-.007.296-.021.399a.632.632 0 0 1-.077.245.293.293 0 0 1-.15.126.705.705 0 0 1-.242.035h-4.186zm7.763-3.234c.14-.13.285-.252.434-.364.15-.112.31-.206.48-.284a2.846 2.846 0 0 1 1.2-.248c.397 0 .748.069 1.053.206.306.138.564.33.774.574.21.246.369.537.476.875.107.339.161.706.161 1.103V15h-2.17v-4.613c0-.355-.082-.631-.245-.83-.163-.198-.404-.297-.721-.297-.238 0-.46.05-.668.15-.208.1-.41.237-.606.41V15h-2.17V7.741h1.344c.27 0 .448.121.532.364l.126.42zm11.312.938a1.2 1.2 0 0 1-.189.189.417.417 0 0 1-.259.07.558.558 0 0 1-.29-.077 60.102 60.102 0 0 0-.291-.172 2.204 2.204 0 0 0-.378-.171 1.627 1.627 0 0 0-.539-.077 1.51 1.51 0 0 0-.69.147 1.277 1.277 0 0 0-.479.42 1.92 1.92 0 0 0-.28.668c-.06.264-.091.562-.091.893 0 .695.134 1.23.403 1.603.268.373.638.56 1.109.56.252 0 .451-.031.599-.095.147-.063.271-.132.374-.21l.284-.213a.524.524 0 0 1 .325-.098c.173 0 .303.063.392.189l.63.777a3.428 3.428 0 0 1-1.466 1.004 3.92 3.92 0 0 1-.781.19 5.747 5.747 0 0 1-.763.052 3.27 3.27 0 0 1-1.27-.252 3.113 3.113 0 0 1-1.065-.732 3.503 3.503 0 0 1-.728-1.179c-.18-.467-.269-.999-.269-1.596 0-.523.078-1.011.234-1.467a3.33 3.33 0 0 1 .694-1.183 3.222 3.222 0 0 1 1.133-.787c.45-.191.972-.287 1.565-.287.57 0 1.069.091 1.498.273.43.182.817.448 1.162.798l-.574.763zm3.507-.602c.224-.392.482-.7.774-.924a1.604 1.604 0 0 1 1.004-.336c.327 0 .593.077.798.231l-.14 1.596c-.023.103-.062.173-.115.21a.38.38 0 0 1-.221.056c-.037 0-.086-.002-.147-.007a6.342 6.342 0 0 1-.189-.018 54.92 54.92 0 0 0-.2-.02 1.815 1.815 0 0 0-.185-.011c-.317 0-.57.084-.76.252a1.982 1.982 0 0 0-.479.7V15h-2.17V7.741h1.288c.107 0 .197.01.27.028a.473.473 0 0 1 .181.087c.05.04.087.093.113.158.025.065.047.145.066.238l.112.609zm10.206-1.12l-3.878 9.142a.777.777 0 0 1-.238.318c-.093.068-.243.102-.448.102h-1.624l1.4-2.94-2.898-6.622h1.918c.168 0 .297.037.388.112a.668.668 0 0 1 .2.266l1.19 3.129c.112.285.203.576.273.875l.154-.448c.051-.15.105-.296.161-.441l1.078-3.115a.577.577 0 0 1 .224-.27.614.614 0 0 1 .35-.108h1.75zm2.807 5.285c.163.177.34.303.532.378.191.075.392.112.602.112.2 0 .385-.04.553-.119a1.13 1.13 0 0 0 .438-.382c.123-.175.22-.402.29-.682.07-.28.105-.62.105-1.022 0-.383-.028-.705-.084-.966a1.99 1.99 0 0 0-.234-.634.91.91 0 0 0-.361-.346 1.034 1.034 0 0 0-.469-.105c-.317 0-.579.058-.784.175a2.18 2.18 0 0 0-.588.511v3.08zm-.133-4.389a3.75 3.75 0 0 1 .97-.746c.361-.193.792-.29 1.291-.29.378 0 .728.084 1.05.252.322.168.6.41.833.728.233.317.416.706.55 1.165.133.46.199.982.199 1.565 0 .546-.076 1.05-.228 1.512a3.8 3.8 0 0 1-.637 1.204c-.273.34-.6.607-.98.798-.38.191-.801.287-1.263.287-.378 0-.695-.054-.952-.161a2.585 2.585 0 0 1-.7-.434v2.786h-2.17V7.741h1.344c.27 0 .448.121.532.364l.161.532zm8.505 6.475c-.345 0-.65-.05-.913-.15a1.814 1.814 0 0 1-.666-.428 1.82 1.82 0 0 1-.409-.668 2.588 2.588 0 0 1-.14-.875V9.239h-.616a.411.411 0 0 1-.287-.109c-.08-.072-.119-.178-.119-.318v-.847l1.155-.224.427-1.771c.056-.224.215-.336.476-.336h1.134v2.121h1.799v1.484h-1.799v3.605c0 .168.04.307.123.416.081.11.199.165.353.165a.695.695 0 0 0 .34-.08c.04-.022.076-.04.111-.057a.287.287 0 0 1 .123-.024c.065 0 .118.015.157.045a.56.56 0 0 1 .123.144l.658 1.029c-.28.21-.595.367-.945.472-.35.106-.712.158-1.085.158zm7.224-4.613c0-.173-.022-.34-.066-.504a1.222 1.222 0 0 0-.218-.438 1.104 1.104 0 0 0-.395-.311 1.353 1.353 0 0 0-.595-.119c-.41 0-.733.118-.966.353-.233.236-.387.576-.462 1.019h2.702zm-2.73 1.26c.07.607.254 1.046.553 1.32.299.273.684.409 1.155.409.252 0 .469-.03.651-.091.182-.06.344-.128.487-.203.142-.075.272-.142.391-.203a.814.814 0 0 1 .375-.091c.173 0 .303.063.392.189l.63.777a3.226 3.226 0 0 1-.724.626 3.765 3.765 0 0 1-.798.378 4.325 4.325 0 0 1-.82.19 6.146 6.146 0 0 1-.78.052c-.509 0-.986-.083-1.431-.249a3.29 3.29 0 0 1-1.17-.738 3.485 3.485 0 0 1-.79-1.218c-.194-.485-.291-1.05-.291-1.694 0-.485.083-.945.249-1.379.165-.434.403-.814.713-1.141a3.4 3.4 0 0 1 1.127-.777 3.72 3.72 0 0 1 1.495-.287c.48 0 .92.075 1.32.224.399.15.741.366 1.029.651.287.285.51.633.671 1.046.162.414.242.881.242 1.404 0 .163-.007.296-.021.399a.632.632 0 0 1-.077.245.293.293 0 0 1-.15.126.705.705 0 0 1-.242.035h-4.186zm10.164-2.072a1.372 1.372 0 0 0-.532-.382 1.688 1.688 0 0 0-.602-.108c-.2 0-.385.04-.553.119-.168.08-.314.206-.438.381-.123.176-.22.403-.29.683a4.24 4.24 0 0 0-.105 1.015c0 .383.028.705.084.966.056.261.134.472.234.633.1.162.221.277.361.347.14.07.296.105.469.105.159 0 .302-.015.43-.046a1.467 1.467 0 0 0 .658-.343 2.9 2.9 0 0 0 .284-.297V9.687zm2.17-5.166V15h-1.344c-.27 0-.448-.121-.532-.364l-.168-.553a4.255 4.255 0 0 1-.455.42c-.159.126-.33.234-.515.325a2.721 2.721 0 0 1-.595.21 3.063 3.063 0 0 1-.689.074c-.378 0-.728-.084-1.05-.252a2.42 2.42 0 0 1-.833-.728 3.674 3.674 0 0 1-.55-1.166 5.66 5.66 0 0 1-.199-1.571c0-.541.075-1.044.224-1.509.15-.464.36-.865.633-1.204.274-.338.601-.603.984-.794a2.793 2.793 0 0 1 1.267-.287c.378 0 .695.054.952.161.257.107.49.252.7.434V4.521h2.17zm6.874 8.505c.163.177.34.303.532.378.191.075.392.112.602.112.2 0 .385-.04.553-.119a1.13 1.13 0 0 0 .438-.382c.123-.175.22-.402.29-.682.07-.28.105-.62.105-1.022 0-.383-.028-.705-.084-.966a1.99 1.99 0 0 0-.234-.634.91.91 0 0 0-.361-.346 1.034 1.034 0 0 0-.469-.105c-.317 0-.579.058-.784.175a2.18 2.18 0 0 0-.588.511v3.08zm-.133-4.389a3.75 3.75 0 0 1 .97-.746c.361-.193.792-.29 1.291-.29.378 0 .728.084 1.05.252.322.168.6.41.833.728.233.317.416.706.55 1.165.133.46.199.982.199 1.565 0 .546-.076 1.05-.227 1.512a3.8 3.8 0 0 1-.637 1.204c-.274.34-.6.607-.98.798-.38.191-.802.287-1.264.287-.378 0-.695-.054-.952-.161a2.585 2.585 0 0 1-.7-.434v2.786h-2.17V7.741h1.344c.27 0 .448.121.532.364l.161.532zm9.758 3.409a7.204 7.204 0 0 0-1.071.112c-.28.056-.502.126-.665.21-.163.084-.277.18-.34.287a.68.68 0 0 0-.094.35c0 .247.068.421.203.521.135.1.334.151.595.151.28 0 .525-.049.735-.147a2.24 2.24 0 0 0 .637-.476v-1.008zm-3.906-3.297a4.413 4.413 0 0 1 1.46-.865 5.116 5.116 0 0 1 1.718-.283c.439 0 .834.071 1.186.213.353.143.651.341.897.595a2.6 2.6 0 0 1 .563.907c.13.35.196.733.196 1.148V15h-.994c-.205 0-.36-.028-.466-.084-.105-.056-.192-.173-.262-.35l-.154-.399c-.182.154-.357.29-.525.406a3.327 3.327 0 0 1-.522.297c-.18.082-.37.143-.573.182a3.52 3.52 0 0 1-.676.06c-.331 0-.632-.043-.903-.13-.27-.086-.5-.213-.69-.381a1.677 1.677 0 0 1-.437-.627 2.26 2.26 0 0 1-.154-.864c0-.261.065-.526.196-.795.13-.268.357-.513.679-.735.322-.221.756-.407 1.302-.556.546-.15 1.234-.233 2.065-.252v-.308c0-.425-.087-.731-.263-.92-.175-.19-.423-.284-.745-.284-.257 0-.467.028-.63.084-.163.056-.31.119-.438.189s-.253.133-.374.189a1.029 1.029 0 0 1-.434.084.625.625 0 0 1-.378-.112.974.974 0 0 1-.252-.266l-.392-.679zm10.171 2.24c.36 0 .62-.09.78-.27.162-.18.242-.411.242-.696 0-.294-.08-.525-.242-.693-.16-.168-.42-.252-.78-.252-.36 0-.62.084-.78.252-.162.168-.242.399-.242.693 0 .14.02.268.06.385a.8.8 0 0 0 .185.304.87.87 0 0 0 .319.203c.128.05.28.074.458.074zm1.68 4.277a.39.39 0 0 0-.231-.375 1.923 1.923 0 0 0-.602-.164 7.728 7.728 0 0 0-.83-.06 13.23 13.23 0 0 1-.913-.052 1.425 1.425 0 0 0-.333.311.628.628 0 0 0-.129.389.59.59 0 0 0 .067.28.548.548 0 0 0 .234.217c.112.06.262.108.452.143.189.036.428.053.717.053.313 0 .57-.019.77-.056.2-.037.36-.089.48-.154a.58.58 0 0 0 .248-.235.642.642 0 0 0 .07-.297zm2.142-7.301v.791a.396.396 0 0 1-.101.287c-.068.07-.184.124-.347.161l-.525.119c.028.103.05.208.066.315.017.107.025.22.025.336a2.088 2.088 0 0 1-.851 1.718c-.263.204-.575.36-.934.47-.36.11-.744.164-1.155.164-.112 0-.222-.004-.329-.01a2.766 2.766 0 0 1-.315-.039c-.159.098-.238.208-.238.329 0 .121.065.209.196.262.13.054.303.091.518.112.215.022.458.035.731.042.274.007.552.024.837.05.285.025.563.068.837.129.273.06.516.159.731.294.215.135.387.316.518.542.13.227.196.515.196.865 0 .327-.08.646-.238.959-.159.313-.392.59-.7.833a3.657 3.657 0 0 1-1.134.584c-.448.148-.961.221-1.54.221-.57 0-1.06-.054-1.474-.161a3.567 3.567 0 0 1-1.028-.424 1.784 1.784 0 0 1-.606-.605 1.42 1.42 0 0 1-.196-.714c0-.322.093-.59.28-.805.187-.215.448-.387.784-.518a1.227 1.227 0 0 1-.42-.413c-.103-.168-.154-.385-.154-.651 0-.107.019-.22.056-.34.037-.119.097-.235.178-.35.082-.114.184-.222.305-.325a1.97 1.97 0 0 1 .434-.273 2.411 2.411 0 0 1-.896-.795 2.027 2.027 0 0 1-.329-1.151c0-.364.077-.692.231-.984.154-.291.365-.538.633-.742.269-.203.585-.359.949-.469a4.07 4.07 0 0 1 1.183-.164c.616 0 1.162.117 1.638.35h2.184zm5.285 2.534c0-.173-.022-.34-.066-.504a1.222 1.222 0 0 0-.218-.438 1.104 1.104 0 0 0-.395-.311 1.353 1.353 0 0 0-.595-.119c-.41 0-.733.118-.966.353-.233.236-.387.576-.462 1.019h2.702zm-2.73 1.26c.07.607.254 1.046.553 1.32.299.273.684.409 1.155.409.252 0 .469-.03.651-.091a3.16 3.16 0 0 0 .486-.203c.143-.075.273-.142.393-.203a.814.814 0 0 1 .374-.091c.173 0 .303.063.392.189l.63.777a3.226 3.226 0 0 1-.724.626 3.765 3.765 0 0 1-.798.378 4.325 4.325 0 0 1-.82.19 6.146 6.146 0 0 1-.78.052c-.509 0-.986-.083-1.431-.249a3.29 3.29 0 0 1-1.17-.738 3.485 3.485 0 0 1-.79-1.218c-.194-.485-.291-1.05-.291-1.694 0-.485.083-.945.248-1.379a3.41 3.41 0 0 1 .714-1.141 3.4 3.4 0 0 1 1.127-.777 3.72 3.72 0 0 1 1.495-.287c.48 0 .92.075 1.32.224.399.15.741.366 1.028.651.288.285.511.633.673 1.046.16.414.241.881.241 1.404 0 .163-.007.296-.021.399a.632.632 0 0 1-.077.245.293.293 0 0 1-.15.126.705.705 0 0 1-.242.035h-4.186zM27.948 6.68c-.096.123-.19.215-.28.276a.571.571 0 0 1-.328.092.67.67 0 0 1-.368-.12c-.123-.08-.26-.168-.412-.264a3.309 3.309 0 0 0-.524-.264c-.197-.08-.43-.12-.696-.12-.245 0-.46.035-.644.104-.184.07-.337.165-.46.288a1.187 1.187 0 0 0-.276.432 1.553 1.553 0 0 0-.092.544c0 .213.06.392.18.536.12.144.28.27.48.38.2.11.425.21.676.3.25.09.508.19.772.296.264.107.523.23.776.368.253.139.48.312.68.52.2.208.36.459.48.752s.18.645.18 1.056a4.5 4.5 0 0 1-.304 1.656c-.203.517-.493.97-.872 1.356a4.145 4.145 0 0 1-1.38.92c-.541.227-1.15.34-1.828.34a4.67 4.67 0 0 1-1.012-.112 5.283 5.283 0 0 1-.976-.316 4.975 4.975 0 0 1-.868-.484 3.334 3.334 0 0 1-.68-.624l.928-1.216a.91.91 0 0 1 .276-.224.695.695 0 0 1 .332-.088c.15 0 .295.052.436.156l.468.344c.17.125.37.24.596.344.227.104.505.156.836.156.485 0 .86-.132 1.124-.396.264-.264.396-.655.396-1.172 0-.24-.06-.437-.18-.592a1.497 1.497 0 0 0-.472-.392 3.992 3.992 0 0 0-.668-.284c-.25-.083-.507-.172-.768-.268a6.535 6.535 0 0 1-.768-.34 2.438 2.438 0 0 1-.668-.512 2.437 2.437 0 0 1-.472-.776c-.12-.307-.18-.684-.18-1.132a3.914 3.914 0 0 1 2.448-3.64c.517-.219 1.099-.328 1.744-.328a4.498 4.498 0 0 1 1.84.392c.272.123.52.268.744.436.224.168.413.35.568.548l-.784 1.072zm5.008-.328l-.344 2.816h3.296l-.256 1.936h-3.28l-.36 2.888h4.344L36.1 16h-6.96l1.44-11.656h6.944l-.256 2.008h-4.312zm9.84 7.632c.293 0 .548-.023.764-.068.216-.045.401-.103.556-.172.155-.07.285-.145.392-.228.107-.083.203-.159.288-.228.085-.07.165-.127.24-.172a.455.455 0 0 1 .24-.068.46.46 0 0 1 .212.044.36.36 0 0 1 .124.1l.912 1.096a5.014 5.014 0 0 1-1.804 1.372c-.696.312-1.487.468-2.372.468-.736 0-1.388-.13-1.956-.388a4.11 4.11 0 0 1-1.436-1.068 4.61 4.61 0 0 1-.884-1.612 6.53 6.53 0 0 1-.3-2.012c0-.667.075-1.299.224-1.896.15-.597.36-1.15.632-1.656a6.41 6.41 0 0 1 .98-1.368 6.046 6.046 0 0 1 4.436-1.912c.437 0 .836.041 1.196.124.36.083.685.197.976.344a3.662 3.662 0 0 1 1.38 1.196l-.912 1.056a1.154 1.154 0 0 1-.224.2.582.582 0 0 1-.336.088.491.491 0 0 1-.248-.064 1.83 1.83 0 0 1-.228-.156c-.077-.061-.164-.13-.26-.204a1.75 1.75 0 0 0-.344-.204 2.492 2.492 0 0 0-.476-.156 2.916 2.916 0 0 0-.652-.064c-.49 0-.948.104-1.372.312a3.246 3.246 0 0 0-1.104.892 4.293 4.293 0 0 0-.732 1.408 6.08 6.08 0 0 0-.264 1.852c0 .496.06.939.18 1.328.12.39.284.719.492.988.208.27.456.475.744.616.288.141.6.212.936.212zm9.56-.032c.325 0 .623-.063.892-.188.27-.125.505-.304.708-.536a2.85 2.85 0 0 0 .5-.844c.13-.33.22-.701.268-1.112l.848-6.928h2.608l-.848 6.928a6.351 6.351 0 0 1-.564 1.956 4.98 4.98 0 0 1-2.7 2.54c-.603.24-1.264.36-1.984.36s-1.352-.12-1.896-.36a3.533 3.533 0 0 1-1.34-1.004 3.78 3.78 0 0 1-.736-1.536c-.141-.595-.167-1.247-.076-1.956l.832-6.928h2.608l-.848 6.928c-.048.41-.045.781.008 1.112.053.33.153.612.3.844.147.232.339.41.576.536.237.125.519.188.844.188zm10.696-4.104c.373 0 .69-.057.952-.172.261-.115.473-.268.636-.46a1.76 1.76 0 0 0 .352-.672 2.97 2.97 0 0 0 .108-.808c0-.219-.032-.417-.096-.596a1.127 1.127 0 0 0-.3-.456 1.409 1.409 0 0 0-.512-.292 2.267 2.267 0 0 0-.724-.104h-.928l-.44 3.56h.952zm.656-5.504c.715 0 1.324.076 1.828.228.504.152.916.361 1.236.628.32.267.553.583.7.948.147.365.22.761.22 1.188 0 .427-.057.833-.172 1.22a3.82 3.82 0 0 1-.5 1.064 3.8 3.8 0 0 1-.8.856 4.257 4.257 0 0 1-1.08.612c.16.09.307.201.44.332.133.13.245.29.336.476L67.612 16H65.26c-.219 0-.401-.044-.548-.132a.75.75 0 0 1-.316-.364l-1.264-3.448a.706.706 0 0 0-.24-.312c-.096-.064-.24-.096-.432-.096h-.584L61.34 16h-2.592l1.424-11.656h3.536zm8.68 2.008l-.344 2.816h3.296l-.256 1.936h-3.28l-.36 2.888h4.344L75.532 16h-6.96l1.44-11.656h6.944L76.7 6.352h-4.312z" fill="#616D71"/><path stroke="#616D71" stroke-width="2" stroke-linecap="round" stroke-linejoin="round" d="M1 17h12V7H1zM3 7V4.375C3 2.519 4.8 1 7 1s4 1.519 4 3.375V7H3z"/></g></svg>